<?xml version="1.0" ?><!DOCTYPE svg  PUBLIC '-//W3C//DTD SVG 1.1//EN'  'http://www.w3.org/Graphics/SVG/1.1/DTD/svg11.dtd'><svg height="128px" id="Layer_1" style="enable-background:new 0 0 128 128;" version="1.1" viewBox="0 0 128 128" width="128px" xml:space="preserve" xmlns="http://www.w3.org/2000/svg" xmlns:xlink="http://www.w3.org/1999/xlink"><g><path d="M76.418,62.11c-0.627,0.627-1.354,1.03-2.178,1.207c-0.822,0.177-1.688,0.096-2.594-0.244   c-0.906-0.34-1.787-0.937-2.641-1.792c-1.023-1.024-1.676-2.063-1.953-3.115c-0.193-0.75-0.207-1.506-0.037-2.266   s0.475-1.359,0.914-1.798c0.254-0.255,0.563-0.384,0.92-0.389c0.359-0.005,0.676,0.129,0.949,0.403   c0.221,0.222,0.338,0.48,0.35,0.775s-0.066,0.637-0.236,1.023c-0.199,0.462-0.332,0.881-0.4,1.256   c-0.068,0.375-0.035,0.774,0.1,1.196c0.135,0.423,0.428,0.86,0.881,1.313c0.623,0.624,1.275,0.985,1.955,1.084   c0.68,0.099,1.236-0.069,1.67-0.503c0.344-0.345,0.52-0.729,0.523-1.154c0.006-0.425-0.102-0.86-0.322-1.307   c-0.219-0.446-0.543-1.011-0.973-1.695c-0.57-0.92-0.99-1.749-1.26-2.485s-0.35-1.454-0.242-2.152   c0.109-0.698,0.465-1.347,1.063-1.946c0.572-0.571,1.234-0.923,1.99-1.055c0.754-0.132,1.547-0.022,2.375,0.329   c0.828,0.352,1.641,0.926,2.438,1.724c0.639,0.638,1.109,1.268,1.416,1.89c0.307,0.623,0.482,1.219,0.529,1.789   c0.045,0.568-0.008,1.067-0.152,1.497c-0.146,0.43-0.357,0.781-0.631,1.055c-0.25,0.25-0.564,0.387-0.941,0.411   c-0.377,0.023-0.699-0.097-0.963-0.361c-0.242-0.241-0.363-0.484-0.369-0.729c-0.004-0.245,0.057-0.578,0.186-0.998   c0.203-0.581,0.281-1.113,0.236-1.597c-0.045-0.484-0.359-1.018-0.945-1.604c-0.543-0.542-1.1-0.861-1.67-0.955   c-0.572-0.095-1.025,0.026-1.359,0.361c-0.209,0.208-0.33,0.443-0.369,0.708c-0.037,0.264-0.012,0.55,0.078,0.857   c0.09,0.307,0.205,0.592,0.348,0.856c0.141,0.264,0.387,0.688,0.736,1.274c0.447,0.722,0.826,1.402,1.137,2.042   c0.309,0.639,0.512,1.244,0.607,1.812c0.098,0.569,0.059,1.127-0.117,1.674C77.291,61.05,76.941,61.586,76.418,62.11z" style="fill:#EE3E36;"/><path d="M82.902,72.474l0.807-1.798l-4.219-4.219l-1.826,0.835c-0.713,0.326-1.229,0.511-1.547,0.556   c-0.318,0.043-0.633-0.089-0.945-0.4c-0.264-0.264-0.402-0.595-0.41-0.991c-0.01-0.396,0.107-0.717,0.354-0.963   c0.143-0.142,0.311-0.265,0.51-0.369c0.199-0.103,0.486-0.236,0.863-0.396l9.395-4.085c0.27-0.118,0.592-0.259,0.971-0.424   c0.377-0.165,0.715-0.277,1.016-0.336c0.299-0.059,0.602-0.046,0.91,0.039c0.305,0.084,0.604,0.272,0.891,0.56   c0.293,0.292,0.482,0.592,0.566,0.899c0.086,0.307,0.1,0.607,0.047,0.903c-0.055,0.295-0.141,0.584-0.258,0.867   c-0.119,0.283-0.281,0.656-0.488,1.119l-3.986,9.408c-0.297,0.722-0.563,1.199-0.793,1.431c-0.24,0.241-0.563,0.36-0.963,0.361   c-0.402-0.001-0.744-0.142-1.027-0.425c-0.164-0.165-0.277-0.336-0.336-0.514c-0.059-0.177-0.078-0.355-0.057-0.538   c0.021-0.182,0.092-0.423,0.209-0.726C82.701,72.965,82.809,72.7,82.902,72.474z M81.621,65.431l3.102,3.1l2.719-5.847   L81.621,65.431z" style="fill:#EE3E36;"/><path d="M96.855,70.215l-7.553,7.554l4.262,4.261c0.34,0.34,0.518,0.684,0.533,1.03   c0.018,0.347-0.1,0.646-0.35,0.896c-0.254,0.255-0.551,0.372-0.889,0.351s-0.678-0.205-1.023-0.549l-5.074-5.075   c-0.459-0.458-0.688-0.889-0.684-1.292c0.002-0.404,0.23-0.832,0.684-1.285l7.992-7.993c0.424-0.424,0.838-0.648,1.242-0.669   c0.402-0.021,0.762,0.124,1.072,0.436c0.316,0.316,0.467,0.677,0.453,1.083S97.285,69.786,96.855,70.215z" style="fill:#EE3E36;"/><path d="M109.869,84.275l-4.738-4.737l-2.547,2.549l4.359,4.361c0.322,0.321,0.49,0.633,0.504,0.935   c0.014,0.302-0.098,0.572-0.332,0.808c-0.236,0.236-0.508,0.35-0.811,0.343c-0.305-0.007-0.621-0.173-0.947-0.5l-4.359-4.361   l-2.953,2.952l4.9,4.899c0.33,0.33,0.502,0.656,0.516,0.977c0.014,0.321-0.105,0.609-0.361,0.864   c-0.244,0.246-0.527,0.361-0.85,0.347c-0.32-0.014-0.646-0.187-0.977-0.517l-5.713-5.713c-0.459-0.458-0.686-0.888-0.684-1.292   c0.002-0.404,0.23-0.833,0.684-1.285l7.801-7.802c0.303-0.302,0.594-0.504,0.875-0.605c0.281-0.102,0.561-0.101,0.84,0.003   c0.277,0.104,0.566,0.305,0.863,0.602l5.551,5.551c0.334,0.334,0.51,0.658,0.523,0.969c0.014,0.312-0.1,0.588-0.34,0.829   c-0.246,0.246-0.525,0.361-0.836,0.347C110.527,84.785,110.203,84.61,109.869,84.275z" style="fill:#EE3E36;"/></g><g><path d="M98.096,109.525c-1.74,0-3.372-0.674-4.596-1.898L51.686,65.815c-2.213-2.214-4.059-6.396-4.2-9.522   l-0.952-20.958c-0.078-1.702,0.508-3.298,1.65-4.493c1.203-1.26,2.86-1.921,4.684-1.841l20.955,0.954   c3.127,0.143,7.31,1.988,9.522,4.201l41.813,41.812c2.534,2.534,2.534,6.658,0,9.192l-22.467,22.466   C101.468,108.851,99.836,109.525,98.096,109.525z M52.571,31.995c-0.864,0-1.652,0.327-2.219,0.92   c-0.57,0.597-0.862,1.408-0.823,2.284l0.952,20.958c0.109,2.392,1.632,5.844,3.325,7.538l41.814,41.812   c1.314,1.314,3.635,1.314,4.949,0l22.467-22.466c1.364-1.365,1.364-3.585,0-4.95L81.224,36.278   c-1.693-1.694-5.146-3.216-7.538-3.325L52.571,31.995z" style="fill:#313335;"/></g><g><path d="M60.896,49.438L60.896,49.438c-3.257,0-5.907-2.65-5.908-5.906c0.001-3.257,2.651-5.907,5.907-5.907   c3.257,0,5.906,2.65,5.906,5.906C66.801,46.788,64.151,49.437,60.896,49.438z M60.896,40.626c-1.603,0-2.906,1.304-2.907,2.907   c0.001,1.601,1.305,2.905,2.907,2.906c1.602-0.001,2.905-1.305,2.906-2.907C63.802,41.93,62.498,40.626,60.896,40.626z" style="fill:#313335;"/></g><g><path d="M16.937,54.498c-0.03,0-0.06,0-0.091,0c-3.836-0.025-9.455-1.66-14.442-9.306   c-0.452-0.694-0.257-1.623,0.438-2.076c0.693-0.452,1.622-0.257,2.076,0.437c3.37,5.168,7.503,7.916,11.948,7.945   c0.024,0,0.048,0,0.071,0c4.822,0,9.734-3.204,13.491-8.801c3.204-4.776,7.246-7.475,12.014-8.021   c9.832-1.116,19.087,7.398,19.477,7.762c0.604,0.565,0.637,1.513,0.072,2.119c-0.565,0.605-1.515,0.639-2.12,0.074   c-0.085-0.08-8.647-7.95-17.098-6.972c-3.849,0.444-7.164,2.703-9.854,6.711C28.596,50.81,22.775,54.497,16.937,54.498z" style="fill:#EE3E36;"/></g><rect height="128" id="_x3C_Slice_x3E__2_" style="fill:none;" width="128" y="1"/></svg>